<svg xmlns="http://www.w3.org/2000/svg" width="1400" height="900" viewBox="0 0 1400 900">
  <rect width="1400" height="900" fill="#0d0d0c"/>
  <g stroke="#232321" stroke-width="0.5">
    <line x1="100" y1="0" x2="100" y2="900"/><line x1="200" y1="0" x2="200" y2="900"/>
    <line x1="300" y1="0" x2="300" y2="900"/><line x1="400" y1="0" x2="400" y2="900"/>
    <line x1="500" y1="0" x2="500" y2="900"/><line x1="600" y1="0" x2="600" y2="900"/>
    <line x1="700" y1="0" x2="700" y2="900"/><line x1="800" y1="0" x2="800" y2="900"/>
    <line x1="900" y1="0" x2="900" y2="900"/><line x1="1000" y1="0" x2="1000" y2="900"/>
    <line x1="1100" y1="0" x2="1100" y2="900"/><line x1="1200" y1="0" x2="1200" y2="900"/>
    <line x1="1300" y1="0" x2="1300" y2="900"/>
    <line x1="0" y1="100" x2="1400" y2="100"/><line x1="0" y1="200" x2="1400" y2="200"/>
    <line x1="0" y1="300" x2="1400" y2="300"/><line x1="0" y1="400" x2="1400" y2="400"/>
    <line x1="0" y1="500" x2="1400" y2="500"/><line x1="0" y1="600" x2="1400" y2="600"/>
    <line x1="0" y1="700" x2="1400" y2="700"/><line x1="0" y1="800" x2="1400" y2="800"/>
  </g>
  <line x1="300" y1="180" x2="520" y2="340" stroke="#c8a96e" stroke-width="0.8" opacity="0.25"/>
  <line x1="520" y1="340" x2="720" y2="260" stroke="#c8a96e" stroke-width="0.8" opacity="0.25"/>
  <line x1="720" y1="260" x2="940" y2="390" stroke="#c8a96e" stroke-width="0.8" opacity="0.25"/>
  <line x1="940" y1="390" x2="1120" y2="290" stroke="#c8a96e" stroke-width="0.8" opacity="0.2"/>
  <line x1="520" y1="340" x2="420" y2="540" stroke="#3a3a37" stroke-width="0.6"/>
  <line x1="720" y1="260" x2="820" y2="490" stroke="#3a3a37" stroke-width="0.6"/>
  <line x1="940" y1="390" x2="760" y2="590" stroke="#3a3a37" stroke-width="0.6"/>
  <line x1="420" y1="540" x2="760" y2="590" stroke="#3a3a37" stroke-width="0.4"/>
  <line x1="820" y1="490" x2="1060" y2="610" stroke="#3a3a37" stroke-width="0.4"/>
  <line x1="210" y1="390" x2="300" y2="180" stroke="#3a3a37" stroke-width="0.4"/>
  <line x1="210" y1="390" x2="420" y2="540" stroke="#3a3a37" stroke-width="0.4"/>
  <line x1="1120" y1="290" x2="1210" y2="490" stroke="#3a3a37" stroke-width="0.4"/>
  <line x1="1210" y1="490" x2="1060" y2="610" stroke="#3a3a37" stroke-width="0.4"/>
  <circle cx="300" cy="180" r="2.5" fill="#c8a96e" opacity="0.7"/>
  <circle cx="520" cy="340" r="5" fill="#c8a96e" opacity="0.85"/>
  <circle cx="720" cy="260" r="3.5" fill="#c8a96e" opacity="0.7"/>
  <circle cx="940" cy="390" r="6" fill="#c8a96e" opacity="0.9"/>
  <circle cx="1120" cy="290" r="3" fill="#c8a96e" opacity="0.55"/>
  <circle cx="210" cy="390" r="2" fill="#5a5a56" opacity="0.7"/>
  <circle cx="420" cy="540" r="2.5" fill="#5a5a56" opacity="0.6"/>
  <circle cx="820" cy="490" r="2" fill="#5a5a56" opacity="0.6"/>
  <circle cx="760" cy="590" r="3" fill="#5a5a56" opacity="0.5"/>
  <circle cx="1060" cy="610" r="2" fill="#5a5a56" opacity="0.5"/>
  <circle cx="1210" cy="490" r="2" fill="#5a5a56" opacity="0.4"/>
  <circle cx="940" cy="390" r="18" fill="none" stroke="#c8a96e" stroke-width="0.5" opacity="0.18"/>
  <circle cx="940" cy="390" r="32" fill="none" stroke="#c8a96e" stroke-width="0.3" opacity="0.08"/>
  <circle cx="520" cy="340" r="14" fill="none" stroke="#c8a96e" stroke-width="0.4" opacity="0.14"/>
  <g font-family="'Courier New', monospace" font-size="8" fill="#252523">
    <text x="8" y="112">0100</text><text x="8" y="212">0200</text>
    <text x="8" y="312">0300</text><text x="8" y="412">0400</text>
    <text x="8" y="512">0500</text><text x="8" y="612">0600</text>
  </g>
  <defs>
    <radialGradient id="vig" cx="50%" cy="50%" r="70%">
      <stop offset="0%" stop-color="#0d0d0c" stop-opacity="0"/>
      <stop offset="100%" stop-color="#0d0d0c" stop-opacity="0.88"/>
    </radialGradient>
  </defs>
  <rect width="1400" height="900" fill="url(#vig)"/>
</svg>
