<svg xmlns="http://www.w3.org/2000/svg" width="800" height="600" viewBox="0 0 800 600">
  <rect width="800" height="600" fill="#161615"/>
  <g fill="#252523">
    <rect x="60" y="80" width="320" height="7" rx="1"/>
    <rect x="60" y="104" width="280" height="7" rx="1"/>
    <rect x="60" y="128" width="300" height="7" rx="1"/>
    <rect x="60" y="152" width="260" height="7" rx="1"/>
    <rect x="60" y="196" width="340" height="7" rx="1"/>
    <rect x="60" y="220" width="200" height="7" rx="1"/>
    <rect x="60" y="244" width="310" height="7" rx="1"/>
    <rect x="60" y="268" width="240" height="7" rx="1"/>
    <rect x="60" y="332" width="290" height="7" rx="1"/>
    <rect x="60" y="356" width="260" height="7" rx="1"/>
    <rect x="60" y="380" width="310" height="7" rx="1"/>
    <rect x="60" y="404" width="180" height="7" rx="1"/>
    <rect x="60" y="448" width="300" height="7" rx="1"/>
    <rect x="60" y="472" width="220" height="7" rx="1"/>
  </g>
  <rect x="60" y="196" width="175" height="7" rx="1" fill="#c8a96e" opacity="0.9"/>
  <rect x="148" y="128" width="95" height="7" rx="1" fill="#c8a96e" opacity="0.9"/>
  <rect x="60" y="268" width="135" height="7" rx="1" fill="#c8a96e" opacity="0.9"/>
  <rect x="185" y="356" width="75" height="7" rx="1" fill="#c8a96e" opacity="0.7"/>
  <rect x="60" y="448" width="115" height="7" rx="1" fill="#c8a96e" opacity="0.7"/>
  <rect x="60" y="310" width="340" height="1" fill="#2e2e2c"/>
  <rect x="480" y="190" width="240" height="68" rx="2" fill="none" stroke="#c8a96e" stroke-width="1" opacity="0.35"/>
  <text x="600" y="218" font-family="'Courier New', monospace" font-size="10" fill="#c8a96e" text-anchor="middle" opacity="0.55" letter-spacing="4">RESEARCH FILE</text>
  <text x="600" y="240" font-family="'Courier New', monospace" font-size="8" fill="#6b6b67" text-anchor="middle" opacity="0.55" letter-spacing="2">PUBLIC RECORDS ONLY</text>
  <text x="600" y="254" font-family="'Courier New', monospace" font-size="7" fill="#3a3a38" text-anchor="middle" letter-spacing="1">COLORADO — 2026</text>
  <g stroke="#1e1e1d" stroke-width="0.5">
    <line x1="440" y1="0" x2="440" y2="600"/>
    <line x1="0" y1="300" x2="800" y2="300"/>
  </g>
  <text x="480" y="520" font-family="'Courier New', monospace" font-size="7" fill="#2a2a28">DR-2026 · DUNMORE RESEARCH</text>
  <defs>
    <radialGradient id="v" cx="50%" cy="50%" r="65%">
      <stop offset="20%" stop-color="#161615" stop-opacity="0"/>
      <stop offset="100%" stop-color="#161615" stop-opacity="0.8"/>
    </radialGradient>
  </defs>
  <rect width="800" height="600" fill="url(#v)"/>
</svg>
